<svg version="1.2" xmlns="http://www.w3.org/2000/svg" viewBox="0 0 16 16" width="16" height="16">
	<title>minesweeper-6</title>
	<style>
		.s0 { fill: #b9b9b9 } 
		.s1 { fill: #757575 } 
		.s2 { fill: #008284 } 
	</style>
	<g id="rect1313_66_">
		<path fill-rule="evenodd" class="s0" d="m15.8 0.2v15.6h-15.6v-15.6z"/>
		<path class="s1" d="m16 0q0 0 0 0v16q0 0 0 0h-16q0 0 0 0v-16q0 0 0 0zm-0.4 0.4h-15.2v15.2h15.2z"/>
	</g>
	<path class="s2" d="m14.1 5v-0.7c0-1.3-1.1-2.4-2.4-2.4h-7.4c-1.3 0-2.4 1.1-2.4 2.4v7.2c0 1.3 1.1 2.4 2.4 2.4h7.4c1.3 0 2.4-1.1 2.4-2.4v-2.3c0-1-1.1-2.5-2.4-2.5h-5.9c-0.3 0-0.6-0.3-0.6-0.6v-1.4c0-0.3 0.3-0.6 0.6-0.6h4.4c0.3 0 0.6 0.3 0.6 0.6v0.3zm-8.7 4.9c0-0.3 0.2-0.6 0.6-0.6h4.3c0.4 0 0.6 0.3 0.6 0.6v1.4c0 0.3-0.2 0.6-0.6 0.6h-4.3c-0.4 0-0.6-0.3-0.6-0.6z"/>
</svg>